<?xml version="1.0" encoding="UTF-8" standalone="no"?>
<!-- Created with Inkscape (http://www.inkscape.org/) -->

<svg
   width="256"
   height="256"
   viewBox="0 0 67.733331 67.733332"
   version="1.1"
   id="svg13359"
   sodipodi:docname="favicon.svg"
   inkscape:version="1.1.1 (3bf5ae0d25, 2021-09-20)"
   inkscape:export-filename="C:\Users\eric\bitmap.png"
   inkscape:export-xdpi="96.000008"
   inkscape:export-ydpi="96.000008"
   xmlns:inkscape="http://www.inkscape.org/namespaces/inkscape"
   xmlns:sodipodi="http://sodipodi.sourceforge.net/DTD/sodipodi-0.dtd"
   xmlns="http://www.w3.org/2000/svg"
   xmlns:svg="http://www.w3.org/2000/svg">
  <sodipodi:namedview
     id="namedview13361"
     pagecolor="#505050"
     bordercolor="#eeeeee"
     borderopacity="1"
     inkscape:pageshadow="0"
     inkscape:pageopacity="0"
     inkscape:pagecheckerboard="0"
     inkscape:document-units="px"
     showgrid="false"
     fit-margin-top="2"
     fit-margin-left="2"
     fit-margin-right="2"
     fit-margin-bottom="2"
     inkscape:snap-global="false"
     units="px"
     lock-margins="true"
     inkscape:zoom="2.2269483"
     inkscape:cx="182.31227"
     inkscape:cy="154.92053"
     inkscape:window-width="1920"
     inkscape:window-height="1050"
     inkscape:window-x="-9"
     inkscape:window-y="-9"
     inkscape:window-maximized="1"
     inkscape:current-layer="layer1" />
  <defs
     id="defs13356" />
  <g
     inkscape:label="Layer 1"
     inkscape:groupmode="layer"
     id="layer1"
     transform="translate(-51.271104,-126.1318)">
    <path
       style="display:inline;fill:#000000;fill-opacity:1;stroke:#ffffff;stroke-width:4.37966;stroke-miterlimit:4;stroke-dasharray:none;stroke-opacity:1;paint-order:stroke fill markers"
       d="m 113.07991,173.13187 -8.05261,-21.46699 11.23635,-5.97234 -2.78083,-7.21838 c -12.90638,5.97362 -38.872455,18.63842 -38.872455,18.63842 l 3.981805,8.13573 18.494759,-9.56148 7.578681,21.20668 z"
       id="path12594"
       inkscape:connector-curvature="0"
       sodipodi:nodetypes="ccccccccc"
       inkscape:export-filename="C:\Users\eric\io\prj\web\rmst\rmartwork\export\favicon24.png"
       inkscape:export-xdpi="8.9999914"
       inkscape:export-ydpi="8.9999914" />
    <path
       style="display:inline;fill:#000000;fill-opacity:1;stroke:#ffffff;stroke-width:4.37966;stroke-miterlimit:4;stroke-dasharray:none;stroke-opacity:1;paint-order:stroke fill markers"
       d="m 105.76377,149.26766 -0.43774,-18.91212 -4.83414,0.40405 c -1.191947,5.64107 -2.606637,8.9001 -4.865247,12.83808 -1.287828,-0.82125 -3.407637,-1.55944 -4.858718,-2.21394 l -1.413675,-10.05916 -4.930096,0.72211 2.539381,19.75326 4.902952,-0.7756 -0.601489,-4.71849 c 1.991477,1.01515 3.538345,1.39086 5.581865,2.63357 1.81395,-2.24181 2.53977,-3.37874 4.132357,-6.8952 l 0.37731,7.44551 z"
       id="path12596"
       inkscape:connector-curvature="0"
       sodipodi:nodetypes="cccccccccccccc"
       inkscape:export-filename="C:\Users\eric\io\prj\web\rmst\rmartwork\export\favicon24.png"
       inkscape:export-xdpi="8.9999914"
       inkscape:export-ydpi="8.9999914" />
    <path
       id="path12600"
       style="color:#000000;display:inline;fill:#000000;fill-opacity:1;stroke:#ffffff;stroke-width:4.37966;stroke-miterlimit:4;stroke-dasharray:none;stroke-opacity:1;paint-order:stroke fill markers"
       d="m 65.35214,145.77058 c -4.621849,2.24028 -8.566494,6.63744 -10.553183,11.85972 -1.986697,5.2223 -2.027002,11.83827 1.676775,17.60652 4.646618,7.23666 11.417738,9.68998 17.887029,9.69055 5.185524,4.7e-4 12.326351,-2.8933 15.266633,-8.13342 2.569425,-4.57919 8.177806,-6.45765 10.547276,-2.39237 3.63179,6.23102 -3.642422,9.68823 -9.489676,8.25134 l -2.168758,8.45258 c 0,0 0.0061,4.8e-4 0.0098,0.002 10.795716,2.03128 17.889144,-1.52486 20.504384,-8.65307 3.74974,-10.22035 -4.23431,-19.33113 -13.124542,-19.64476 -10.099539,-0.35634 -12.22445,8.01648 -17.226829,10.97009 -3.132554,1.8496 -9.002799,1.66894 -11.869515,-3.86825 -2.542694,-4.91127 -2.023073,-10.58417 1.542552,-14.22048 3.638816,-3.71097 10.829856,-4.3623 17.374173,-1.97123 l 3.26485,-8.07857 c -9.665019,-3.42545 -16.844618,-3.16553 -23.641063,0.12883 z"
       sodipodi:nodetypes="sssssscccsssssccs"
       inkscape:export-filename="C:\Users\eric\io\prj\web\rmst\rmartwork\export\favicon24.png"
       inkscape:export-xdpi="8.9999914"
       inkscape:export-ydpi="8.9999914" />
    <path
       style="display:inline;fill:#000000;fill-opacity:1;stroke:#ffffff;stroke-width:4.37966;stroke-miterlimit:4;stroke-dasharray:none;stroke-opacity:1;paint-order:stroke fill markers"
       d="m 74.397227,129.04129 c -3.763673,1.67346 -6.111549,4.45487 -8.344619,7.62855 l 2.878994,2.6248 0.680365,-0.98407 c 1.62563,3.42777 2.353985,6.72375 3.247474,10.11487 l 4.102682,-0.94885 -0.283431,-1.2537 11.611321,1.33846 0.62649,-3.97867 -7.734316,-1.04281 c 3.20613,-2.54916 4.499279,-7.81028 2.0093,-10.84763 -2.557814,-3.12012 -5.142602,-4.27461 -8.79426,-2.65095 z m 2.040049,3.68547 c 1.278172,-0.27915 2.498095,0.0956 3.232767,1.27077 1.894543,3.03043 -1.054443,5.74614 -2.88919,6.36074 l -1.691551,0.56708 c -0.602158,-2.29006 -1.161799,-4.01314 -1.971772,-6.13354 0.981435,-0.87055 2.151381,-1.79652 3.319746,-2.06505 z"
       id="path12598"
       inkscape:connector-curvature="0"
       sodipodi:nodetypes="scccccccccsscccccc"
       inkscape:export-filename="C:\Users\eric\io\prj\web\rmst\rmartwork\export\favicon24.png"
       inkscape:export-xdpi="8.9999914"
       inkscape:export-ydpi="8.9999914" />
  </g>
</svg>
