<?xml version="1.0" encoding="UTF-8" standalone="no"?>
<!-- Created with Inkscape (http://www.inkscape.org/) -->

<svg
   width="256"
   height="256"
   viewBox="0 0 67.733331 67.733332"
   version="1.1"
   id="svg13359"
   inkscape:version="1.1.1 (3bf5ae0d25, 2021-09-20)"
   sodipodi:docname="favicon.svg"
   xmlns:inkscape="http://www.inkscape.org/namespaces/inkscape"
   xmlns:sodipodi="http://sodipodi.sourceforge.net/DTD/sodipodi-0.dtd"
   xmlns="http://www.w3.org/2000/svg"
   xmlns:svg="http://www.w3.org/2000/svg">
  <sodipodi:namedview
     id="namedview13361"
     pagecolor="#505050"
     bordercolor="#eeeeee"
     borderopacity="1"
     inkscape:pageshadow="0"
     inkscape:pageopacity="0"
     inkscape:pagecheckerboard="0"
     inkscape:document-units="px"
     showgrid="false"
     fit-margin-top="2"
     fit-margin-left="2"
     fit-margin-right="2"
     fit-margin-bottom="2"
     inkscape:snap-global="false"
     units="px"
     lock-margins="true"
     inkscape:zoom="1.4079984"
     inkscape:cx="149.85813"
     inkscape:cy="90.909195"
     inkscape:window-width="1920"
     inkscape:window-height="1050"
     inkscape:window-x="-9"
     inkscape:window-y="-9"
     inkscape:window-maximized="1"
     inkscape:current-layer="layer1" />
  <defs
     id="defs13356" />
  <g
     inkscape:label="Layer 1"
     inkscape:groupmode="layer"
     id="layer1"
     transform="translate(-51.271104,-126.1318)">
    <path
       style="display:inline;fill:#000000;fill-opacity:1;stroke:#ffffff;stroke-width:4.23333322;stroke-miterlimit:4;stroke-dasharray:none;stroke-opacity:1;paint-order:stroke fill markers"
       d="m 113.04339,172.65907 -7.8202,-20.65262 10.91206,-5.74577 -2.70058,-6.94455 c -12.53388,5.74701 -37.750558,17.93136 -37.750558,17.93136 l 3.866887,7.82708 17.960985,-9.19874 7.359956,20.40218 z"
       id="path12594"
       inkscape:connector-curvature="0"
       sodipodi:nodetypes="ccccccccc" />
    <path
       style="display:inline;fill:#000000;fill-opacity:1;stroke:#ffffff;stroke-width:4.23333;stroke-miterlimit:4;stroke-dasharray:none;stroke-opacity:1;paint-order:stroke fill markers"
       d="m 105.93841,149.70018 -0.42512,-18.19468 -4.69461,0.38872 c -1.157556,5.42706 -2.531412,8.56246 -4.72484,12.35105 -1.250656,-0.79009 -3.309286,-1.50027 -4.718488,-2.12995 l -1.372875,-9.67755 -4.787809,0.69473 2.466092,19.00389 4.761448,-0.74619 -0.584129,-4.53949 c 1.934001,0.97665 3.43623,1.3381 5.420767,2.53367 1.761601,-2.15676 2.466468,-3.25056 4.013104,-6.63362 l 0.36641,7.16306 z"
       id="path12596"
       inkscape:connector-curvature="0"
       sodipodi:nodetypes="cccccccccccccc" />
    <path
       id="path12600"
       style="color:#000000;display:inline;fill:#000000;fill-opacity:1;stroke:#ffffff;stroke-width:4.23333;stroke-miterlimit:4;stroke-dasharray:none;stroke-opacity:1;paint-order:stroke fill markers"
       d="m 66.693086,146.33575 c -4.488458,2.1553 -8.319258,6.38566 -10.24861,11.40982 -1.92936,5.02418 -1.968501,11.38917 1.628382,16.93859 4.512513,6.96214 11.088214,9.32239 17.370796,9.32294 5.035866,4.6e-4 11.970603,-2.78354 14.826026,-7.82487 2.49527,-4.40548 7.941788,-6.21268 10.24288,-2.30162 3.52697,5.99465 -3.537306,9.3207 -9.215803,7.93832 l -2.106165,8.13193 c 0,0 0.0059,4.6e-4 0.0095,0.002 10.484157,1.95422 17.372848,-1.46702 19.912618,-8.32482 3.64152,-9.83262 -4.11211,-18.59778 -12.745764,-18.89951 -9.808059,-0.34283 -11.871644,7.71237 -16.72965,10.55393 -3.042146,1.77943 -8.742971,1.60562 -11.526952,-3.7215 -2.469309,-4.72496 -1.964685,-10.18264 1.498033,-13.68102 3.533797,-3.57019 10.517298,-4.19682 16.872742,-1.89645 l 3.170623,-7.7721 c -9.386078,-3.29551 -16.358469,-3.04545 -22.958764,0.12394 z"
       sodipodi:nodetypes="sssssscccsssssccs" />
    <path
       style="display:inline;fill:#000000;fill-opacity:1;stroke:#ffffff;stroke-width:4.23333;stroke-miterlimit:4;stroke-dasharray:none;stroke-opacity:1;paint-order:stroke fill markers"
       d="m 77.081974,129.66141 c -0.543965,0.12698 -1.080828,0.32367 -1.604848,0.5797 -3.588449,1.75342 -5.935166,4.28587 -8.103788,7.33914 l 2.795904,2.52524 0.660729,-0.94675 c 1.578712,3.29775 2.286046,6.46869 3.153749,9.73116 l 3.984276,-0.91286 -0.27525,-1.20613 11.276208,1.28768 0.60841,-3.82774 -7.511098,-1.00324 c 3.113598,-2.45246 4.16136,-7.35362 1.95131,-10.43613 -2.093551,-2.92 -4.578451,-3.68009 -6.935597,-3.12987 z m 0.376322,4.12535 c 1.241284,-0.26856 2.425999,0.092 3.139467,1.22256 1.839865,2.91548 -1.024011,5.52817 -2.805806,6.11945 l -1.642731,0.54556 c -0.584778,-2.20318 -1.128268,-3.86089 -1.914865,-5.90085 l 1.018022,-0.85399 c 0.69572,-0.58394 1.461146,-0.97161 2.205913,-1.13273 z"
       id="path12598"
       inkscape:connector-curvature="0" />
  </g>
</svg>
