<?xml version="1.0" encoding="UTF-8" standalone="no"?>
<!-- Created with Inkscape (http://www.inkscape.org/) -->

<svg
   width="256"
   height="256"
   viewBox="0 0 67.733331 67.733332"
   version="1.1"
   id="svg13359"
   sodipodi:docname="round_favicon.svg"
   inkscape:version="1.1.1 (3bf5ae0d25, 2021-09-20)"
   inkscape:export-filename="C:\Users\eric\io\prj\web\rmst\rmartwork\export\round_favicon.png"
   inkscape:export-xdpi="96.000008"
   inkscape:export-ydpi="96.000008"
   xmlns:inkscape="http://www.inkscape.org/namespaces/inkscape"
   xmlns:sodipodi="http://sodipodi.sourceforge.net/DTD/sodipodi-0.dtd"
   xmlns="http://www.w3.org/2000/svg"
   xmlns:svg="http://www.w3.org/2000/svg">
  <sodipodi:namedview
     id="namedview13361"
     pagecolor="#505050"
     bordercolor="#eeeeee"
     borderopacity="1"
     inkscape:pageshadow="0"
     inkscape:pageopacity="0"
     inkscape:pagecheckerboard="0"
     inkscape:document-units="px"
     showgrid="false"
     fit-margin-top="2"
     fit-margin-left="2"
     fit-margin-right="2"
     fit-margin-bottom="2"
     inkscape:snap-global="false"
     units="px"
     lock-margins="true"
     inkscape:zoom="1.1209018"
     inkscape:cx="-59.773299"
     inkscape:cy="-4.460694"
     inkscape:window-width="1920"
     inkscape:window-height="1050"
     inkscape:window-x="-9"
     inkscape:window-y="-9"
     inkscape:window-maximized="1"
     inkscape:current-layer="layer1"
     inkscape:snap-page="true" />
  <defs
     id="defs13356" />
  <g
     inkscape:label="Layer 1"
     inkscape:groupmode="layer"
     id="layer1"
     transform="translate(-51.271104,-126.1318)">
    <ellipse
       style="fill:#272727;fill-opacity:1;stroke:none;stroke-width:3.34194;stroke-opacity:1;paint-order:stroke fill markers"
       id="path1118"
       cx="176.07578"
       cy="50.652622"
       rx="31.241959"
       ry="21.869074"
       transform="matrix(0.69488324,0.71912258,-0.74173362,0.67069459,0,0)" />
    <path
       style="display:inline;fill:#000000;fill-opacity:1;stroke:#ffffff;stroke-width:3.8419;stroke-miterlimit:4;stroke-dasharray:none;stroke-opacity:1;paint-order:stroke fill markers"
       d="m 109.64902,171.51928 -7.06386,-18.83116 9.85668,-5.23902 -2.43938,-6.33207 c -11.321662,5.24015 -34.099476,16.34989 -34.099476,16.34989 l 3.492896,7.13678 16.223869,-8.38746 6.648131,18.6028 z"
       id="path12594"
       inkscape:connector-curvature="0"
       sodipodi:nodetypes="ccccccccc"
       inkscape:export-filename="C:\Users\eric\io\prj\web\rmst\rmartwork\export\favicon24.png"
       inkscape:export-xdpi="8.9999914"
       inkscape:export-ydpi="8.9999914" />
    <path
       style="display:inline;fill:#000000;fill-opacity:1;stroke:#ffffff;stroke-width:3.8419;stroke-miterlimit:4;stroke-dasharray:none;stroke-opacity:1;paint-order:stroke fill markers"
       d="m 103.2312,150.58525 -0.38399,-16.58999 -4.24058,0.35444 c -1.045593,4.94843 -2.28658,7.8073 -4.267865,11.26175 -1.129701,-0.72041 -2.989228,-1.36796 -4.262137,-1.9421 l -1.240096,-8.82404 -4.324751,0.63345 2.227581,17.32784 4.30094,-0.68037 -0.527635,-4.13912 c 1.746953,0.8905 3.103887,1.22008 4.896493,2.3102 1.591223,-1.96655 2.227922,-2.96388 3.624963,-6.04857 l 0.330981,6.53131 z"
       id="path12596"
       inkscape:connector-curvature="0"
       sodipodi:nodetypes="cccccccccccccc"
       inkscape:export-filename="C:\Users\eric\io\prj\web\rmst\rmartwork\export\favicon24.png"
       inkscape:export-xdpi="8.9999914"
       inkscape:export-ydpi="8.9999914" />
    <path
       id="path12600"
       style="color:#000000;display:inline;fill:#000000;fill-opacity:1;stroke:#ffffff;stroke-width:3.8419;stroke-miterlimit:4;stroke-dasharray:none;stroke-opacity:1;paint-order:stroke fill markers"
       d="m 65.761769,147.04232 c -4.054353,1.9652 -7.514652,5.82246 -9.257404,10.40352 -1.742759,4.58107 -1.778116,10.3847 1.470891,15.44469 4.07608,6.3481 10.015804,8.50019 15.690759,8.50069 4.548816,4.1e-4 10.812852,-2.53805 13.39211,-7.13475 2.253937,-4.01694 7.173689,-5.66475 9.252222,-2.09863 3.18585,5.46594 -3.195185,8.49866 -8.32448,7.2382 l -1.902466,7.41472 c 0,0 0.0054,4.2e-4 0.0086,0.002 9.470157,1.78187 15.692609,-1.33763 17.986739,-7.5906 3.28932,-8.96544 -3.7144,-16.95755 -11.513036,-17.23267 -8.85946,-0.31258 -10.723463,7.03218 -15.111622,9.62312 -2.747921,1.6225 -7.897384,1.46402 -10.412109,-3.39328 -2.230488,-4.30824 -1.774669,-9.28459 1.353149,-12.47441 3.192022,-3.25532 9.500105,-3.82667 15.240874,-1.72919 l 2.863974,-7.08664 c -8.478294,-3.00485 -14.776342,-2.77685 -20.738281,0.11301 z"
       sodipodi:nodetypes="sssssscccsssssccs"
       inkscape:export-filename="C:\Users\eric\io\prj\web\rmst\rmartwork\export\favicon24.png"
       inkscape:export-xdpi="8.9999914"
       inkscape:export-ydpi="8.9999914" />
    <path
       style="display:inline;fill:#000000;fill-opacity:1;stroke:#ffffff;stroke-width:3.8419;stroke-miterlimit:4;stroke-dasharray:none;stroke-opacity:1;paint-order:stroke fill markers"
       d="m 75.716016,132.84239 c -3.301548,1.46798 -5.361139,3.90787 -7.32002,6.69187 l 2.525495,2.30251 0.596826,-0.86324 c 1.426026,3.00689 2.06495,5.89817 2.848731,8.87291 l 3.598932,-0.83234 -0.24863,-1.09977 10.185618,1.17412 0.549566,-3.49015 -6.784653,-0.91477 c 2.812463,-2.23616 3.946832,-6.85129 1.762586,-9.51569 -2.243751,-2.73702 -4.511164,-3.74975 -7.714451,-2.32545 z m 1.78956,3.23294 c 1.121231,-0.24487 2.191365,0.0839 2.83583,1.11474 1.66192,2.65834 -0.924972,5.0406 -2.534439,5.57973 l -1.483853,0.49745 c -0.528221,-2.00887 -1.019147,-3.52038 -1.729667,-5.38043 0.860929,-0.76366 1.887223,-1.57593 2.912129,-1.81149 z"
       id="path12598"
       inkscape:connector-curvature="0"
       sodipodi:nodetypes="scccccccccsscccccc"
       inkscape:export-filename="C:\Users\eric\io\prj\web\rmst\rmartwork\export\favicon24.png"
       inkscape:export-xdpi="8.9999914"
       inkscape:export-ydpi="8.9999914" />
  </g>
</svg>
