<?xml version="1.0" encoding="UTF-8" standalone="no"?>
<!-- Created with Inkscape (http://www.inkscape.org/) -->

<svg
   width="80mm"
   height="42mm"
   viewBox="0 0 80 42"
   version="1.1"
   id="svg3585"
   inkscape:version="1.1.1 (3bf5ae0d25, 2021-09-20)"
   sodipodi:docname="sticker cutkontur.svg"
   xmlns:inkscape="http://www.inkscape.org/namespaces/inkscape"
   xmlns:sodipodi="http://sodipodi.sourceforge.net/DTD/sodipodi-0.dtd"
   xmlns="http://www.w3.org/2000/svg"
   xmlns:svg="http://www.w3.org/2000/svg">
  <sodipodi:namedview
     id="namedview3587"
     pagecolor="#505050"
     bordercolor="#eeeeee"
     borderopacity="1"
     inkscape:pageshadow="0"
     inkscape:pageopacity="0"
     inkscape:pagecheckerboard="0"
     inkscape:document-units="mm"
     showgrid="false"
     width="82mm"
     inkscape:snap-bbox="true"
     inkscape:bbox-nodes="true"
     inkscape:bbox-paths="true"
     inkscape:snap-page="true"
     inkscape:snap-global="false"
     inkscape:zoom="2.4543404"
     inkscape:cx="165.42123"
     inkscape:cy="72.932019"
     inkscape:window-width="1920"
     inkscape:window-height="1050"
     inkscape:window-x="-9"
     inkscape:window-y="-9"
     inkscape:window-maximized="1"
     inkscape:current-layer="layer1" />
  <defs
     id="defs3582" />
  <g
     inkscape:label="Layer 1"
     inkscape:groupmode="layer"
     id="layer1"
     style="opacity:1">
    <g
       id="g4897"
       transform="matrix(0.99321968,0.14605624,-0.14605624,0.99321968,17.475973,-7.034532)">
      <path
         style="color:#000000;display:inline;fill:none;fill-opacity:1;stroke:#ff00ff;stroke-width:0.0996114;stroke-linecap:square;stroke-miterlimit:4;stroke-dasharray:none;stroke-opacity:1;paint-order:stroke markers fill"
         d="m 49.480294,1.6685815 c -3.358679,0.547561 -6.727777,1.0098101 -10.103968,1.433486 -1.225013,0.1495157 -1.706025,-0.083046 -2.996431,0.1461417 L 34.223187,3.6312607 C 32.857406,3.8778159 32.254143,2.3540509 30.374263,2.7794073 l -4.083491,0.9214266 c -1.34258,0.3616649 -2.00291,0.086997 -3.304048,0.4659871 L 17.650922,5.7210119 C 16.028355,6.1547778 16.374396,7.385609 14.610732,8.0527854 L 7.087382,11.090229 C 5.5674663,11.756818 5.2726091,10.5412 3.7541923,11.521547 l -5.4998911,3.510045 c -0.7120536,0.49173 -1.451647,0.60448 -2.282235,0.408996 -1.733074,-0.4005 -3.4094078,0.179531 -4.6656768,1.056409 -3.3499584,2.338276 -4.7398664,6.25334 -4.7398664,6.25334 -0.42082,0.846957 0.06076,1.721729 0.607558,2.09201 l 2.124447,1.438643 c 0.645794,0.417041 0.8056089,0.789181 1.0998341,1.320039 l 1.2771828,3.098576 c 0.221127,0.571222 1.080077,1.346637 2.1906211,0.878183 l 2.5256004,-0.90587 c 0.9896337,-0.354957 1.8093703,0.318734 2.0162902,1.228318 0.93052593,4.491993 5.5894136,7.756235 9.5591173,8.015208 1.4047376,0.02842 1.1419931,1.343012 2.4531201,1.818924 1.063522,0.386037 1.256284,0.520438 2.335984,0.901035 1.345076,0.474143 3.41479,0.708721 5.509112,0.05359 0.672814,-0.210465 1.759805,0.180386 1.930498,1.018005 0.232912,1.142936 0.892117,2.112069 2.084932,1.811539 l 15.26724,-3.152784 c 1.130437,-0.233443 2.625811,0.763697 4.979473,0.293352 2.520688,-0.503723 2.512594,-2.128049 4.466227,-2.518302 l 2.741169,-0.547569 c 1.330165,-0.345534 2.161679,-1.597344 1.665454,-3.511457 -0.22477,-1.03019 0.03076,-1.904089 1.163891,-2.181181 0.739189,-0.180758 1.088996,-0.729584 1.055859,-1.661842 l -0.01341,-0.901396 c -0.01775,-1.164358 0.650633,-1.750862 1.801283,-1.663544 3.033916,0.436816 4.99732,-0.24761 7.457572,-2.480452 2.334911,-2.119087 2.24564,-5.163496 2.24564,-5.163496 l 0.281278,-3.161483 c 0.14014,-1.033028 -0.635426,-1.817944 -1.959018,-1.649557 -1.091274,-0.0025 -1.644986,-1.264581 -1.397524,-1.958799 l 1.145268,-3.250736 C 63.69759,10.955327 63.295678,10.09554 62.379391,9.7416265 59.541705,8.8047375 56.689433,7.8764326 53.315617,8.4817486 52.434184,8.6398916 51.351936,7.9016679 51.520465,7.0867265 l -0.06021,-3.649951 c -0.0067,-1.0172628 -0.835911,-1.988443 -1.979961,-1.768194 z"
         id="path4889"
         sodipodi:nodetypes="cccccccccccccsssccccsccsssscsssccscccsccccccsccc" />
    </g>
    <g
       id="g3675"
       transform="matrix(0.99321968,0.14605624,-0.14605624,0.99321968,17.130152,-6.8508649)" />
  </g>
</svg>
