<?xml version="1.0" encoding="UTF-8" standalone="no"?>
<!-- Created with Inkscape (http://www.inkscape.org/) -->

<svg
   width="80mm"
   height="42mm"
   viewBox="0 0 80 42"
   version="1.1"
   id="svg3585"
   inkscape:version="1.1.1 (3bf5ae0d25, 2021-09-20)"
   sodipodi:docname="sticker.svg"
   inkscape:export-filename="C:\Users\eric\io\prj\web\rmst\rmartwork\logo wip\sticker.png"
   inkscape:export-xdpi="356.20477"
   inkscape:export-ydpi="356.20477"
   xmlns:inkscape="http://www.inkscape.org/namespaces/inkscape"
   xmlns:sodipodi="http://sodipodi.sourceforge.net/DTD/sodipodi-0.dtd"
   xmlns="http://www.w3.org/2000/svg"
   xmlns:svg="http://www.w3.org/2000/svg">
  <sodipodi:namedview
     id="namedview3587"
     pagecolor="#ffffff"
     bordercolor="#eeeeee"
     borderopacity="1"
     inkscape:pageshadow="0"
     inkscape:pageopacity="1"
     inkscape:pagecheckerboard="0"
     inkscape:document-units="mm"
     showgrid="false"
     width="82mm"
     inkscape:snap-bbox="true"
     inkscape:bbox-nodes="true"
     inkscape:bbox-paths="true"
     inkscape:snap-page="true"
     inkscape:snap-global="false"
     inkscape:zoom="3.4403381"
     inkscape:cx="127.31307"
     inkscape:cy="106.38489"
     inkscape:window-width="1920"
     inkscape:window-height="1050"
     inkscape:window-x="-9"
     inkscape:window-y="-9"
     inkscape:window-maximized="1"
     inkscape:current-layer="layer1" />
  <defs
     id="defs3582" />
  <g
     inkscape:label="Layer 1"
     inkscape:groupmode="layer"
     id="layer1">
    <g
       id="g3675"
       transform="matrix(0.99321968,0.14605624,-0.14605624,0.99321968,17.475973,-7.034532)">
      <path
         style="color:#000000;display:inline;fill:#ffffff;fill-opacity:1;stroke:none;stroke-width:1.63738;stroke-linecap:square;stroke-miterlimit:4;stroke-dasharray:none;stroke-opacity:1;-inkscape-stroke:none;paint-order:stroke markers fill"
         d="m 51.425688,1.3413434 -8.374376,1.3120075 -5.02972,0.616717 -0.193705,-0.2790355 -4.05385,0.7247405 c -0.956325,0.1729135 -1.02435,0.2242485 -1.18353,-0.577304 L 32.454452,2.3100194 24.693537,4.0612449 24.372457,3.7631904 16.12481,6.1655315 16.440772,7.3139335 5.3964717,11.772909 4.9999182,10.726521 -2.989013,15.801752 c -0.676828,-0.26204 -1.3766305,-0.440236 -2.085417,-0.445162 -0.7979091,-0.0055 -1.5630396,0.1544 -2.2427596,0.417019 -0.5026035,0.194184 -0.9607335,0.442764 -1.376421,0.723388 -2.2009614,1.486092 -3.1237234,3.168377 -4.1055534,5.0626 l -1.266409,2.443275 4.135018,2.800171 2.2804954,5.318578 5.0549256,-1.789708 c 0.4489199,-0.171386 0.822095,0.187966 0.860158,0.655135 0.1222515,1.180274 0.429556,2.091354 1.03797005,3.252457 1.93551755,3.693764 5.85526335,5.394252 8.97672535,5.68337 1.4047376,0.02842 1.3751441,-0.02375 1.314381,1.336778 1.0350366,0.516442 2.0824926,0.99511 3.1621776,1.37575 1.345229,0.474257 4.22968,0.61671 6.086163,-0.186286 0.565162,-0.162 1.070504,0.15717 1.218001,0.758485 l 0.683809,2.614402 17.892261,-3.63223 c 1.974539,1.207508 6.003162,0.615086 6.93974,-1.729089 l 4.158677,-0.867451 c 1.330165,-0.345534 2.161679,-1.597344 1.665454,-3.511457 -0.22477,-1.03019 -0.27652,-1.974178 0.70332,-2.139743 l 1.59316,-0.0067 -0.120285,-3.159039 c -0.04265,-1.187715 -0.04355,-1.374589 1.179015,-1.19504 3.244155,0.505937 5.78846,-0.109441 8.109985,-2.387893 2.25039,-2.208639 2.24564,-5.163496 2.24564,-5.163496 l 0.382485,-4.737842 -3.316583,-0.162255 c -0.472115,0.0046 -0.61993,-0.451954 -0.511453,-0.764434 l 2.132771,-6.097083 -2.92041,-1.02368 c -1.79436,-0.6289445 -3.554515,-0.9337805 -5.22586,-0.9414925 -1.09848,-0.00507 -2.15153,0.135303 -3.15079,0.385788 -0.596905,0.1612305 -0.905975,0.080251 -0.9218,-0.6059365 z"
         id="path2784"
         sodipodi:nodetypes="cccccccccccccccccccccccsccscccccccccccsccccccsccc" />
      <path
         style="color:#000000;display:inline;fill:#000000;fill-opacity:1;stroke:none;stroke-width:6.18855;stroke-linecap:square;stroke-miterlimit:4;stroke-dasharray:none;stroke-opacity:1;-inkscape-stroke:none;paint-order:stroke markers fill"
         d="m 48.812808,4.6634225 -2.146816,0.2715085 0.312121,5.621451 c -1.295951,-0.177425 -1.902351,-0.5423 -2.836306,-1.3172595 -0.19125,-1.311306 -0.295175,-3.762449 -0.295175,-3.762449 l -1.884585,0.137834 0.555175,7.1820755 1.814545,-0.116087 -0.07708,-1.496986 c 0.7814,0.565683 1.645305,0.924035 2.790581,1.095636 1.07635,0.161267 1.94087,-0.02686 1.94087,-0.02686 z m -7.523941,1.0233605 -1.94087,0.2718305 0.778715,7.0739815 1.8008,-0.172372 z m -10.95348,0.1861225 -2.31567,0.522555 c -0.19773,2.7894695 -0.663745,4.4505185 -1.49315,6.4948225 -0.67947,-0.306739 -1.75667,-0.517071 -2.504035,-0.732661 l -1.36267,-4.733683 -2.340938,0.681813 2.561283,9.311624 2.323985,-0.7058 -0.60922,-2.224529 c 1.03356,0.352003 1.808575,0.427171 2.88268,0.884886 0.72815,-1.199687 1.003235,-1.795043 1.53824,-3.591677 l 0.684375,3.549146 2.12123,-0.406149 z m 5.81557,0.447083 -1.77489,0.322997 c -0.588025,1.9076 -0.73441,2.9353106 -1.26737,4.6681255 l -1.356595,0.233452 0.231215,1.727883 0.630965,-0.09146 -0.259035,0.928379 2.03809,-0.348581 0.38472,-1.099476 c 1.164355,-0.123238 1.851955,0.142024 2.968065,0.575003 l 1.909205,-0.172694 C 38.912117,11.108706 37.505232,8.87094 36.150957,6.3199885 Z m -0.377365,2.800169 0.987225,2.1321105 c -0.9443,-0.126088 -1.008155,-0.207786 -1.676075,-0.198596 0.198195,-0.480612 0.433955,-1.2742614 0.68885,-1.9335145 z M 19.932606,9.4262071 c -0.283762,0.00938 -1.707414,0.5046455 -1.707414,0.5046455 l 1.595164,5.2699894 c -1.210721,0.375327 -2.177847,0.09237 -3.470154,-0.550378 -0.493701,-1.247407 -1.281118,-3.63453 -1.281121,-3.63453 l -1.681511,0.532148 2.190634,6.758019 1.652411,-0.555814 -0.381844,-1.285277 c 1.215263,0.465135 2.339874,0.550047 3.434337,0.364253 1.038516,-0.180569 1.642174,-0.425334 1.642174,-0.425334 L 19.97354,9.4313251 c -0.008,-0.00395 -0.02203,-0.00576 -0.04094,-0.00511 z m 36.107372,1.7927999 c -3.91853,-0.0181 -6.84112,2.050635 -7.868045,4.751912 -0.827535,2.176779 -0.65121,4.626643 0.36361,6.705892 1.014825,2.07925 2.973205,3.816951 5.60226,4.251426 3.11321,0.514483 5.508035,-0.498252 6.819105,-1.97061 1.347475,-1.513256 1.46916,-3.31441 1.46916,-3.31441 l 0.12856,-1.592924 -8.19552,-0.395913 -0.14935,3.090549 4.37071,0.211708 c -0.597985,0.635792 -1.736725,1.282248 -3.938015,0.918466 -1.59457,-0.263514 -2.68099,-1.234463 -3.325605,-2.555204 -0.64461,-1.32074 -0.74246,-2.962425 -0.253285,-4.249185 0.705795,-1.856542 3.324635,-3.862313 8.169615,-2.164089 l 1.023685,-2.920097 c -1.494115,-0.523703 -2.91071,-0.761484 -4.216885,-0.767521 z m -43.40266,0.642479 -1.688222,0.656871 2.235082,6.680946 1.669038,-0.583315 z M 10.312691,12.96 4.6253637,15.512966 6.4866022,20.771443 C 8.8343512,20.911851 10.5609,20.339794 12.815126,19.405895 L 12.30025,18.066891 c -1.43412,0.599197 -3.0328172,1.096074 -4.1628398,1.083483 L 10.502654,17.640917 10.06197,16.454459 7.5649697,17.961996 6.9144952,16.035521 10.654238,14.400061 Z m 36.116006,0.271831 c -0.819345,0.0203 -2.75316,0.306368 -2.75316,0.306368 l 0.7333,9.507662 c -2.142745,-0.409884 -3.442475,-1.025059 -4.975445,-2.839826 -0.32163,-2.276745 -0.481625,-6.001373 -0.481625,-6.001373 l -3.049615,0.348583 1.146485,12.324462 3.030745,-0.385039 -0.299335,-2.648905 c 1.71136,1.306623 2.690875,1.676838 4.44555,1.85612 1.666505,0.163088 3.143951,-0.08762 3.143951,-0.08762 l -0.58907,-12.34525 c -0.03295,-0.03041 -0.162696,-0.03987 -0.351781,-0.03518 z m -11.760335,1.755703 -3.02851,0.483539 1.451575,11.994108 2.944405,-0.532787 z m -30.8210704,0.189962 -1.774253,1.113543 1.5913265,4.315706 c -0.612533,0.152286 -0.8224815,0.139588 -2.042246,0.52767 l -1.62106653,-3.379648 -1.58908807,0.841394 1.45413206,3.326241 -0.95044606,0.430772 0.61305656,1.58493 1.04478802,-0.475543 0.45411652,0.980507 1.7045345,-0.875933 -0.43461,-0.94405 c 0.712165,-0.246128 1.09709,-0.35505 2.0540791,-0.531187 l 0.26959,0.544939 1.687586,-0.964198 z m 26.2741504,0.652393 -3.514925,0.857703 1.81263,8.672984 c -1.770725,-0.02021 -2.75001,-0.207809 -4.778135,-1.008011 -0.33783,0.73179 -0.87051,1.40025 -1.33613,2.007067 -1.501716,-1.447914 -3.356154,-4.413805 -4.370708,-7.806644 l -3.517483,1.402324 c 1.702868,3.961308 4.25102,8.214915 6.978678,11.649687 1.978773,-0.998808 2.637273,-1.868447 3.832808,-3.780683 2.10812,0.551508 3.78769,0.629581 6.91856,0.125363 z m -34.8150575,2.442634 c -0.379853,-0.0026 -0.750616,0.07177 -1.1061891,0.209149 -0.2625805,0.101449 -0.516575,0.237223 -0.760166,0.401668 -1.6680925,1.126298 -2.662086,2.554404 -3.5305944,4.229999 l 1.5721379,1.064615 0.2635155,-0.518717 c 1.0187535,1.535245 1.5937855,3.068085 2.2552315,4.635506 l 1.9245581,-0.734582 -0.2219415,-0.582675 5.7177096,-0.146789 0.035495,-1.952701 -3.8187351,0.02495 c 1.38217005,-1.441922 1.56212955,-3.961196 0.24337,-5.344824 -0.8588525,-0.90109 -1.7387155,-1.279789 -2.574392,-1.285597 z m -0.067798,2.13051 c 0.4065245,-0.0086 0.791625,0.147881 1.0908385,0.501447 1.1223195,1.326172 -0.124048,2.830621 -0.9718735,3.250449 L -5.42404,24.542206 c -0.4460896,-1.058582 -0.8333661,-1.848055 -1.3687456,-2.811044 l 0.4480405,-0.49729 c 0.3063225,-0.340129 0.6613581,-0.587314 1.0217621,-0.719869 0.18771,-0.06904 0.376785,-0.10707 0.5615695,-0.11097 z m 14.8806275,1.315976 c -1.2047748,-0.02973 -2.3402093,0.177502 -3.4682358,0.596428 -1.7533695,0.651169 -3.3326381,2.101743 -4.2280786,3.914996 -0.8954445,1.813256 -1.1303215,4.193661 0.02302,6.39473 1.446955,2.761395 3.8248571,3.871954 6.1747006,4.089605 1.8835428,0.17446 4.5737958,-0.627188 5.8162108,-2.414811 1.085706,-1.562154 3.185463,-2.050038 3.910836,-0.506886 1.111807,2.365241 -1.645736,3.365608 -3.721837,2.651785 l -1.069093,2.969985 c 0,0 0.0025,9e-4 0.0036,0.0012 3.853773,1.09412 6.54878,0.05224 7.735973,-2.426005 1.702177,-3.553299 -0.894798,-7.101653 -4.113598,-7.513381 -3.65664,-0.467733 -4.70709,2.475207 -6.622424,3.370379 -1.1994087,0.560564 -3.3256673,0.298218 -4.1826708,-1.791523 -0.7601325,-1.853531 -0.382584,-3.87832 1.033596,-5.067557 1.4452495,-1.213647 4.0789578,-1.206436 6.3764938,-0.125682 l 1.454776,-2.798571 C 13.33179,22.187412 11.668201,21.757267 10.11921,21.719039 Z m 39.490219,4.218806 -5.941891,0.574042 0.153825,5.199955 c 2.190315,0.801345 3.79394,0.932313 6.93423,0.618174 l -0.255519,-1.376103 c -2.178325,0.225479 -2.818106,0.212508 -4.427956,-0.01439 l 2.572795,-0.558052 0.0499,-1.271204 -2.928416,0.635762 0.0045,-2.112921 3.836011,-0.437486 z m -6.671357,0.742577 -1.946944,0.276627 c -0.457741,2.127613 -1.0301,3.541018 -2.008345,4.787732 -0.57374,-0.235656 -1.38389,-0.679564 -2.018575,-0.843634 l -0.283665,-3.338717 -1.885545,0.345065 0.69013,6.769537 1.82222,-0.315005 -0.196995,-1.642493 c 0.876135,0.268959 1.452985,0.648717 2.360765,1.000014 0.712295,-0.753009 1.191595,-1.547468 1.831495,-3.033307 l 0.30477,2.797614 1.902814,-0.260316 z m -9.20673,1.515213 -1.980205,0.422775 0.794391,6.801197 2.033285,-0.401669 z m -2.657219,0.689809 c -3.011411,0.887335 -9.090321,2.812966 -9.090321,2.812966 l 0.616895,1.889381 4.346725,-1.488671 0.9949,4.836979 1.95909,-0.549416 -1.090515,-4.908615 2.646026,-0.939577 z"
         id="path3145" />
      <text
         xml:space="preserve"
         style="font-style:normal;font-variant:normal;font-weight:normal;font-stretch:normal;font-size:4.93889px;line-height:1.25;font-family:'Roboto Slab';-inkscape-font-specification:'Roboto Slab, Normal';font-variant-ligatures:normal;font-variant-caps:normal;font-variant-numeric:normal;font-variant-east-asian:normal;fill:#000000;fill-opacity:1;stroke:none;stroke-width:0.163738"
         x="13.221558"
         y="47.046936"
         id="text7583"
         transform="rotate(-11.586867)"><tspan
           sodipodi:role="line"
           id="tspan7581"
           style="font-style:normal;font-variant:normal;font-weight:normal;font-stretch:normal;font-size:4.93889px;font-family:'Roboto Slab';-inkscape-font-specification:'Roboto Slab, Normal';font-variant-ligatures:normal;font-variant-caps:normal;font-variant-numeric:normal;font-variant-east-asian:normal;stroke-width:0.163738"
           x="13.221558"
           y="47.046936">rmswing.de</tspan></text>
    </g>
  </g>
</svg>
