<?xml version="1.0" encoding="UTF-8" standalone="no"?>
<svg
   width="87mm"
   height="57mm"
   viewBox="0 0 87.000003 57"
   version="1.1"
   id="svg8"
   inkscape:version="1.1.1 (3bf5ae0d25, 2021-09-20)"
   sodipodi:docname="rmst visitenkarten 1 front.svg"
   inkscape:export-filename="C:\Users\eric\io\prj\web\psycho löw heinemann\proof.png"
   inkscape:export-xdpi="356.04559"
   inkscape:export-ydpi="356.04559"
   xmlns:inkscape="http://www.inkscape.org/namespaces/inkscape"
   xmlns:sodipodi="http://sodipodi.sourceforge.net/DTD/sodipodi-0.dtd"
   xmlns:xlink="http://www.w3.org/1999/xlink"
   xmlns="http://www.w3.org/2000/svg"
   xmlns:svg="http://www.w3.org/2000/svg"
   xmlns:rdf="http://www.w3.org/1999/02/22-rdf-syntax-ns#"
   xmlns:cc="http://creativecommons.org/ns#"
   xmlns:dc="http://purl.org/dc/elements/1.1/">
  <defs
     id="defs2">
    <linearGradient
       id="linearGradient886"
       inkscape:collect="always">
      <stop
         id="stop882"
         offset="0"
         style="stop-color:#000000;stop-opacity:1;" />
      <stop
         id="stop884"
         offset="1"
         style="stop-color:#35ff21;stop-opacity:1" />
    </linearGradient>
    <linearGradient
       inkscape:collect="always"
       xlink:href="#linearGradient886"
       id="linearGradient851"
       x1="22.460938"
       y1="35.105911"
       x2="96.890266"
       y2="35.105911"
       gradientUnits="userSpaceOnUse" />
    <radialGradient
       inkscape:collect="always"
       xlink:href="#linearGradient886"
       id="radialGradient867"
       cx="40.158062"
       cy="52.061371"
       fx="40.158062"
       fy="52.061371"
       r="17.970423"
       gradientTransform="matrix(1,0,0,0.2379583,0,39.672934)"
       gradientUnits="userSpaceOnUse" />
    <radialGradient
       inkscape:collect="always"
       xlink:href="#linearGradient886"
       id="radialGradient869"
       cx="109.44361"
       cy="52.301514"
       fx="109.44361"
       fy="52.301514"
       r="35.116608"
       gradientTransform="matrix(1,0,0,0.12361122,0,45.836459)"
       gradientUnits="userSpaceOnUse" />
  </defs>
  <sodipodi:namedview
     id="base"
     pagecolor="#ffffff"
     bordercolor="#666666"
     borderopacity="1.0"
     inkscape:pageopacity="1"
     inkscape:pageshadow="2"
     inkscape:zoom="1.6581437"
     inkscape:cx="168.56199"
     inkscape:cy="136.90008"
     inkscape:document-units="mm"
     inkscape:current-layer="layer1"
     inkscape:document-rotation="0"
     showgrid="false"
     fit-margin-top="50"
     fit-margin-left="50"
     fit-margin-right="50"
     fit-margin-bottom="50"
     lock-margins="true"
     inkscape:window-width="1920"
     inkscape:window-height="1050"
     inkscape:window-x="-9"
     inkscape:window-y="-9"
     inkscape:window-maximized="1"
     inkscape:snap-global="true"
     inkscape:snap-page="true"
     showguides="true"
     inkscape:guide-bbox="true"
     width="87mm"
     inkscape:pagecheckerboard="false"
     borderlayer="true"
     inkscape:snap-bbox="true"
     inkscape:bbox-paths="true"
     inkscape:bbox-nodes="true">
    <sodipodi:guide
       position="0,55.999999"
       orientation="0,1"
       id="guide925"
       inkscape:label=""
       inkscape:locked="false"
       inkscape:color="rgb(0,0,255)" />
    <sodipodi:guide
       position="0.99999999,56.999999"
       orientation="-1,0"
       id="guide927"
       inkscape:label=""
       inkscape:locked="false"
       inkscape:color="rgb(0,0,255)" />
    <sodipodi:guide
       position="0,0.99999999"
       orientation="0,1"
       id="guide929"
       inkscape:label=""
       inkscape:locked="false"
       inkscape:color="rgb(0,0,255)" />
    <sodipodi:guide
       position="85.999999,56.999999"
       orientation="-1,0"
       id="guide931"
       inkscape:label=""
       inkscape:locked="false"
       inkscape:color="rgb(0,0,255)" />
    <sodipodi:guide
       position="4,41.986187"
       orientation="-1,0"
       id="guide953"
       inkscape:label=""
       inkscape:locked="false"
       inkscape:color="rgb(0,0,255)" />
    <sodipodi:guide
       position="0,4"
       orientation="0,1"
       id="guide981"
       inkscape:label=""
       inkscape:locked="false"
       inkscape:color="rgb(0,0,255)" />
    <sodipodi:guide
       position="0,53"
       orientation="0,1"
       id="guide1148"
       inkscape:label=""
       inkscape:locked="false"
       inkscape:color="rgb(0,0,255)" />
    <sodipodi:guide
       position="82.999999,56.999999"
       orientation="-1,0"
       id="guide1150"
       inkscape:label=""
       inkscape:locked="false"
       inkscape:color="rgb(0,0,255)" />
  </sodipodi:namedview>
  <metadata
     id="metadata5">
    <rdf:RDF>
      <cc:Work
         rdf:about="">
        <dc:format>image/svg+xml</dc:format>
        <dc:type
           rdf:resource="http://purl.org/dc/dcmitype/StillImage" />
      </cc:Work>
    </rdf:RDF>
  </metadata>
  <g
     inkscape:label="bg1"
     id="g884"
     inkscape:groupmode="layer"
     style="display:none">
    <path
       sodipodi:nodetypes="ccccc"
       d="M 0,0 H 235.63326 V 71.487227 L 0,71.522764 Z"
       style="fill:#9e002b;fill-opacity:1;stroke:none;stroke-width:1.3;stroke-linecap:round;stroke-linejoin:round;stroke-miterlimit:4;stroke-dasharray:none;stroke-opacity:1;paint-order:stroke fill markers"
       id="path882" />
  </g>
  <g
     style="display:inline"
     inkscape:groupmode="layer"
     id="layer4"
     inkscape:label="bg0" />
  <g
     style="display:inline"
     inkscape:label="Layer 1"
     inkscape:groupmode="layer"
     id="layer1"
     transform="translate(40.076058,49.619145)">
    <path
       style="color:#000000;display:inline;fill:#000000;fill-opacity:1;stroke:none;stroke-width:6.16695;stroke-linecap:square;stroke-miterlimit:4;stroke-dasharray:none;stroke-opacity:1;-inkscape-stroke:none;paint-order:stroke markers fill"
       d="m 25.985051,-39.644467 -2.139325,0.270561 0.311032,5.601835 c -1.291429,-0.176806 -1.895713,-0.540407 -2.826409,-1.312662 -0.190583,-1.306731 -0.294145,-3.749321 -0.294145,-3.749321 l -1.878009,0.137353 0.553238,7.157014 1.808213,-0.115682 -0.07681,-1.491763 c 0.778673,0.56371 1.639564,0.920811 2.780843,1.091814 1.072595,0.160704 1.934098,-0.02676 1.934098,-0.02676 z m -7.497687,1.019789 -1.934098,0.270883 0.775998,7.049296 1.794517,-0.17177 z m -10.9152592,0.185474 -2.3075899,0.520731 c -0.19704,2.779735 -0.6614289,4.434989 -1.4879397,6.472159 -0.6770991,-0.305668 -1.7505404,-0.515266 -2.4952976,-0.730105 l -1.3579152,-4.717165 -2.3327696,0.679434 2.55234573,9.279133 2.31587587,-0.703338 -0.6070942,-2.216766 c 1.0299536,0.350774 1.8022643,0.42568 2.8726212,0.881798 0.7256093,-1.195501 0.9997344,-1.78878 1.5328725,-3.579144 l 0.6819871,3.536761 2.1138281,-0.404731 z m 5.7952772,0.445522 -1.768696,0.321871 c -0.585974,1.900943 -0.731848,2.925067 -1.262949,4.651836 l -1.3518609,0.232637 0.2304082,1.721854 0.6287633,-0.09114 -0.2581311,0.92514 2.0309785,-0.347366 0.383377,-1.095639 c 1.160292,-0.122808 1.845494,0.141528 2.957709,0.572996 l 1.902542,-0.17209 c -0.740616,-1.948087 -2.142592,-4.178045 -3.492141,-6.720094 z m -0.376049,2.790399 0.983781,2.12467 c -0.941006,-0.125648 -1.004637,-0.207061 -1.670227,-0.197903 0.197504,-0.478935 0.432441,-1.269815 0.686446,-1.926767 z m -15.7857101,0.304981 c -0.2827714,0.0094 -1.7014559,0.502884 -1.7014559,0.502884 l 1.5895975,5.2516 c -1.206496,0.374018 -2.1702473,0.09205 -3.4580455,-0.548456 -0.4919782,-1.243055 -1.2766475,-3.621848 -1.2766505,-3.621848 l -1.6756435,0.530291 2.18299,6.734439 1.646645,-0.553876 -0.3805111,-1.280792 c 1.2110225,0.463511 2.3317087,0.548128 3.4223534,0.362982 1.0348922,-0.179939 1.63644337,-0.42385 1.63644337,-0.42385 l -1.94493117,-6.948274 c -0.00799,-0.0039 -0.021953,-0.0058 -0.040792,-0.005 z m 35.9813801,1.786544 c -3.904857,-0.01803 -6.817249,2.04348 -7.840591,4.735331 -0.824647,2.169183 -0.648937,4.610498 0.362342,6.682493 1.011283,2.071995 2.96283,3.803632 5.582711,4.236592 3.102347,0.512687 5.488815,-0.496515 6.79531,-1.963734 1.342774,-1.507976 1.464034,-3.302846 1.464034,-3.302846 l 0.128112,-1.587365 -8.166923,-0.394532 -0.148829,3.079766 4.355459,0.210969 c -0.595899,0.633573 -1.730665,1.277773 -3.924274,0.91526 -1.589006,-0.262595 -2.671634,-1.230154 -3.314,-2.546287 -0.642361,-1.316132 -0.73987,-2.952089 -0.252402,-4.234359 0.703332,-1.850064 3.313035,-3.848836 8.141109,-2.156538 l 1.020113,-2.909907 c -1.488902,-0.521876 -2.900554,-0.758827 -4.202171,-0.764843 z m -43.251212,0.640237 -1.682331,0.654579 2.2272828,6.657635 1.6632139,-0.581281 z m -2.316516,1.094681 -5.667481,2.544058 1.854743,5.240128 c 2.339557,0.139919 4.060082,-0.430142 6.3064415,-1.360783 l -0.5130795,-1.33433 c -1.429116,0.597104 -3.022234,1.092249 -4.148314,1.079701 l 2.35699,-1.504189 -0.439146,-1.182319 -2.488287,1.502277 -0.648206,-1.919754 3.726695,-1.629753 z m 35.989984,0.270883 c -0.816486,0.02023 -2.743553,0.305298 -2.743553,0.305298 l 0.730741,9.474488 c -2.135268,-0.408455 -3.430463,-1.021482 -4.958084,-2.829918 -0.320507,-2.268801 -0.479944,-5.980432 -0.479944,-5.980432 l -3.038974,0.347367 1.142484,12.281458 3.02017,-0.383695 -0.29829,-2.639663 c 1.705388,1.302063 2.681485,1.670987 4.430037,1.849644 1.660691,0.162517 3.132981,-0.08732 3.132981,-0.08732 l -0.587015,-12.302173 c -0.03284,-0.0303 -0.162128,-0.03972 -0.350553,-0.03505 z m -11.719299,1.749576 -3.0179422,0.481852 1.4465102,11.952256 2.934131,-0.530927 z m -30.713524,0.189299 -1.768061,1.109657 1.585773,4.300649 c -0.610396,0.151754 -0.819611,0.1391 -2.03512,0.525828 l -1.615409,-3.367855 -1.583544,0.838457 1.449059,3.314636 -0.947131,0.429269 0.610918,1.579399 1.041142,-0.473885 0.452532,0.977087 1.698587,-0.872876 -0.433094,-0.940756 c 0.70968,-0.24527 1.093262,-0.353811 2.046911,-0.529335 l 0.26865,0.543038 1.681697,-0.960834 z m 26.1824704,0.650117 -3.5026602,0.85471 1.806305,8.642721 c -1.7645462,-0.02015 -2.7404141,-0.207084 -4.7614624,-1.004493 -0.33665119,0.729237 -0.86747247,1.395363 -1.33146775,2.000062 -1.49647595,-1.44286 -3.34444275,-4.398402 -4.35545655,-7.779403 l -3.5052096,1.39743 c 1.6969265,3.947487 4.236187,8.186252 6.9543273,11.609038 1.9718678,-0.995324 2.62807,-1.861928 3.8194335,-3.76749 2.100764,0.549584 3.7744734,0.627384 6.8944185,0.124924 z m -34.6935754,2.434111 c -0.378528,-0.0026 -0.747996,0.07152 -1.102329,0.208419 -0.261664,0.101095 -0.514773,0.236396 -0.757514,0.400266 -1.662271,1.122368 -2.652797,2.545491 -3.518274,4.21524 l 1.566652,1.060899 0.262596,-0.516905 c 1.015199,1.529887 1.588225,3.057378 2.247363,4.619331 l 1.917842,-0.73202 -0.221168,-0.580641 5.697759,-0.146278 0.03538,-1.945886 -3.80541,0.02486 c 1.377347,-1.436892 1.556679,-3.947375 0.24252,-5.326175 -0.855855,-0.897945 -1.732649,-1.275322 -2.565408,-1.281111 z m -0.06756,2.123075 c 0.405106,-0.0085 0.788864,0.147367 1.087032,0.499698 1.118404,1.321545 -0.123615,2.820744 -0.968482,3.239108 l -0.778864,0.385925 c -0.444533,-1.054887 -0.830458,-1.841607 -1.363969,-2.801235 l 0.446477,-0.495555 c 0.305253,-0.338942 0.65905,-0.585264 1.018196,-0.717358 0.187055,-0.0688 0.37547,-0.106695 0.55961,-0.110583 z m 14.828704,1.311385 c -1.20057,-0.02962 -2.332044,0.176883 -3.456134,0.594346 -1.747252,0.648898 -3.321009,2.09441 -4.213325,3.901336 -0.89232,1.806928 -1.126378,4.179028 0.02294,6.372415 1.441906,2.7517586 3.81151,3.8584426 6.153155,4.075333 1.876969,0.1738509 4.5578351,-0.6249985 5.7959152,-2.406384 1.0819176,-1.556702 3.1743477,-2.042882 3.897191,-0.505115 1.1079267,2.3569844 -1.6399939,3.3538611 -3.7088505,2.6425289 l -1.0653621,2.9596211 c 0,0 0.00239,8.968e-4 0.00349,0.00119 3.8403257,1.0903026 6.5259294,0.052058 7.7089793,-2.4175403 1.69623655,-3.5408977 -0.8916751,-7.0768687 -4.0992441,-7.4871597 -3.6438819,-0.466101 -4.6906658,2.466569 -6.5993168,3.358617 -1.195222,0.558609 -3.314062,0.297178 -4.168075,-1.785271 -0.75748,-1.847063 -0.381249,-3.864785 1.02999,-5.049873 1.440206,-1.209412 4.064723,-1.202227 6.3542427,-0.125244 L -7.46823,-21.3084 c -1.9039757,-0.87328 -3.56176,-1.301926 -5.105346,-1.34002 z m 39.352423,4.204086 -5.921158,0.572038 0.153288,5.18181 c 2.182672,0.798549 3.780703,0.929059 6.910035,0.616016 l -0.254629,-1.3713 c -2.170723,0.224692 -2.808271,0.211766 -4.412505,-0.01434 l 2.563818,-0.556104 0.04972,-1.266768 -2.918198,0.633542 0.0045,-2.105547 3.822626,-0.435959 z m -6.648078,0.739984 -1.940152,0.275662 c -0.456142,2.120189 -1.026505,3.528662 -2.001336,4.771026 -0.571738,-0.234834 -1.379061,-0.677193 -2.011532,-0.84069 l -0.282675,-3.327068 -1.878965,0.343863 0.687721,6.7459128 1.815862,-0.3139058 -0.196308,-1.636762 c 0.873078,0.268021 1.447915,0.646454 2.352527,0.996526 0.709811,-0.750381 1.187437,-1.542069 1.825104,-3.022723 l 0.303708,2.787853 1.896174,-0.259409 z m -9.174605,1.509926 -1.9732945,0.421301 0.7916183,6.7774618 2.0261892,-0.4002662 z m -2.6479472,0.687403 c -3.000902,0.884238 -9.0586005,2.803149 -9.0586005,2.803149 l 0.61474245,1.882789 4.33155775,-1.483477 0.9914284,4.8200982 1.9522542,-0.5474985 -1.08671,-4.8914837 2.6367919,-0.936299 z"
       id="path3145" />
    <text
       xml:space="preserve"
       style="font-style:normal;font-variant:normal;font-weight:normal;font-stretch:normal;font-size:4.93889px;line-height:1.25;font-family:'Roboto Slab';-inkscape-font-specification:'Roboto Slab, Normal';font-variant-ligatures:normal;font-variant-caps:normal;font-variant-numeric:normal;font-variant-east-asian:normal;fill:#000000;fill-opacity:1;stroke:none;stroke-width:0.163167"
       x="15.18114"
       y="2.3289385"
       id="text7583"
       transform="rotate(-0.00328114)"><tspan
         sodipodi:role="line"
         id="tspan7581"
         style="font-style:normal;font-variant:normal;font-weight:normal;font-stretch:normal;font-size:4.93889px;font-family:'Roboto Slab';-inkscape-font-specification:'Roboto Slab, Normal';font-variant-ligatures:normal;font-variant-caps:normal;font-variant-numeric:normal;font-variant-east-asian:normal;stroke-width:0.163167"
         x="15.18114"
         y="2.3289385">rmswing.de</tspan></text>
  </g>
  <g
     inkscape:groupmode="layer"
     id="layer5"
     inkscape:label="Layer 5"
     style="display:none">
    <text
       transform="translate(40.076059,49.619146)"
       xml:space="preserve"
       style="font-style:normal;font-variant:normal;font-weight:bold;font-stretch:normal;font-size:10.5833px;line-height:1.25;font-family:'Century Gothic';-inkscape-font-specification:'Century Gothic, Bold';font-variant-ligatures:normal;font-variant-caps:normal;font-variant-numeric:normal;font-variant-east-asian:normal;fill:#fdfdfd;fill-opacity:1;stroke:none;stroke-width:0.264583"
       x="15.502561"
       y="19.752317"
       id="text835"><tspan
         sodipodi:role="line"
         id="tspan833"
         x="15.502561"
         y="19.752317"
         style="font-style:normal;font-variant:normal;font-weight:bold;font-stretch:normal;font-size:10.5833px;font-family:'Century Gothic';-inkscape-font-specification:'Century Gothic, Bold';font-variant-ligatures:normal;font-variant-caps:normal;font-variant-numeric:normal;font-variant-east-asian:normal;fill:#fdfdfd;fill-opacity:1;stroke-width:0.264583">Psychotherapie</tspan></text>
    <text
       transform="translate(40.076059,49.619146)"
       xml:space="preserve"
       style="font-style:normal;font-variant:normal;font-weight:bold;font-stretch:normal;font-size:10.5833px;line-height:1.25;font-family:'Century Gothic';-inkscape-font-specification:'Century Gothic, Bold';font-variant-ligatures:normal;font-variant-caps:normal;font-variant-numeric:normal;font-variant-east-asian:normal;fill:#fdfdfd;fill-opacity:1;stroke:none;stroke-width:0.264583"
       x="15.572234"
       y="30.308416"
       id="text839"><tspan
         sodipodi:role="line"
         id="tspan837"
         x="15.572234"
         y="30.308416"
         style="font-style:normal;font-variant:normal;font-weight:bold;font-stretch:normal;font-size:10.5833px;font-family:'Century Gothic';-inkscape-font-specification:'Century Gothic, Bold';font-variant-ligatures:normal;font-variant-caps:normal;font-variant-numeric:normal;font-variant-east-asian:normal;fill:#fdfdfd;fill-opacity:1;stroke-width:0.264583">Dr. Löw -</tspan><tspan
         sodipodi:role="line"
         x="15.572234"
         y="43.53754"
         style="font-style:normal;font-variant:normal;font-weight:bold;font-stretch:normal;font-size:10.5833px;font-family:'Century Gothic';-inkscape-font-specification:'Century Gothic, Bold';font-variant-ligatures:normal;font-variant-caps:normal;font-variant-numeric:normal;font-variant-east-asian:normal;fill:#fdfdfd;fill-opacity:1;stroke-width:0.264583"
         id="tspan892" /></text>
    <text
       transform="translate(40.076059,49.619146)"
       xml:space="preserve"
       style="font-style:normal;font-variant:normal;font-weight:bold;font-stretch:normal;font-size:10.5833px;line-height:1.25;font-family:'Century Gothic';-inkscape-font-specification:'Century Gothic, Bold';font-variant-ligatures:normal;font-variant-caps:normal;font-variant-numeric:normal;font-variant-east-asian:normal;fill:#fdfdfd;fill-opacity:1;stroke:none;stroke-width:0.264583"
       x="63.776752"
       y="30.676943"
       id="text843"><tspan
         sodipodi:role="line"
         id="tspan841"
         x="63.776752"
         y="30.676943"
         style="font-style:normal;font-variant:normal;font-weight:bold;font-stretch:normal;font-size:10.5833px;font-family:'Century Gothic';-inkscape-font-specification:'Century Gothic, Bold';font-variant-ligatures:normal;font-variant-caps:normal;font-variant-numeric:normal;font-variant-east-asian:normal;fill:#fdfdfd;fill-opacity:1;stroke-width:0.264583">Dr. Heinemann</tspan></text>
  </g>
  <g
     inkscape:groupmode="layer"
     id="layer3"
     inkscape:label="Layer 3"
     style="display:none">
    <path
       id="path912"
       style="color:#000000;font-style:normal;font-variant:normal;font-weight:normal;font-stretch:normal;font-size:medium;line-height:normal;font-family:sans-serif;font-variant-ligatures:normal;font-variant-position:normal;font-variant-caps:normal;font-variant-numeric:normal;font-variant-alternates:normal;font-variant-east-asian:normal;font-feature-settings:normal;font-variation-settings:normal;text-indent:0;text-align:start;text-decoration:none;text-decoration-line:none;text-decoration-style:solid;text-decoration-color:#000000;letter-spacing:normal;word-spacing:normal;text-transform:none;writing-mode:lr-tb;direction:ltr;text-orientation:mixed;dominant-baseline:auto;baseline-shift:baseline;text-anchor:start;white-space:normal;shape-padding:0;shape-margin:0;inline-size:0;clip-rule:nonzero;display:inline;overflow:visible;visibility:visible;opacity:1;isolation:auto;mix-blend-mode:normal;color-interpolation:sRGB;color-interpolation-filters:linearRGB;solid-color:#000000;solid-opacity:1;vector-effect:none;fill:#000000;fill-opacity:1;fill-rule:nonzero;stroke:none;stroke-width:1.3;stroke-linecap:round;stroke-linejoin:round;stroke-miterlimit:4;stroke-dasharray:none;stroke-dashoffset:0;stroke-opacity:1;paint-order:stroke fill markers;color-rendering:auto;image-rendering:auto;shape-rendering:auto;text-rendering:auto;enable-background:accumulate;stop-color:#000000;stop-opacity:1"
       d="m 99.810393,49.470835 c -27.794441,0 -50.339559,22.545636 -50.339559,50.340078 2e-6,27.794447 22.545121,50.341627 50.339559,50.341627 26.550897,0 48.312017,-20.57539 50.206237,-46.64469 h -1.30328 c -1.88915,25.36365 -23.05495,45.344 -48.902957,45.344 -27.091866,0 -49.03886,-21.94907 -49.038863,-49.040937 0,-27.09187 21.946997,-49.039383 49.038863,-49.039383 22.064847,2e-6 40.717017,14.558663 46.879827,34.597372 h 1.35444 C 141.83379,64.609866 122.58521,49.470836 99.810393,49.470835 Z" />
  </g>
  <g
     inkscape:groupmode="layer"
     id="layer2"
     inkscape:label="Layer 2"
     style="display:none"
     transform="translate(40.076058,49.619145)">
    <path
       id="path899"
       style="color:#000000;font-style:normal;font-variant:normal;font-weight:normal;font-stretch:normal;font-size:medium;line-height:normal;font-family:sans-serif;font-variant-ligatures:normal;font-variant-position:normal;font-variant-caps:normal;font-variant-numeric:normal;font-variant-alternates:normal;font-variant-east-asian:normal;font-feature-settings:normal;font-variation-settings:normal;text-indent:0;text-align:start;text-decoration:none;text-decoration-line:none;text-decoration-style:solid;text-decoration-color:#000000;letter-spacing:normal;word-spacing:normal;text-transform:none;writing-mode:lr-tb;direction:ltr;text-orientation:mixed;dominant-baseline:auto;baseline-shift:baseline;text-anchor:start;white-space:normal;shape-padding:0;shape-margin:0;inline-size:0;clip-rule:nonzero;display:inline;overflow:visible;visibility:visible;opacity:1;isolation:auto;mix-blend-mode:normal;color-interpolation:sRGB;color-interpolation-filters:linearRGB;solid-color:#000000;solid-opacity:1;vector-effect:none;fill:#000000;fill-opacity:1;fill-rule:nonzero;stroke:none;stroke-width:4.91339;stroke-linecap:round;stroke-linejoin:round;stroke-miterlimit:4;stroke-dasharray:none;stroke-dashoffset:0;stroke-opacity:1;paint-order:stroke fill markers;color-rendering:auto;image-rendering:auto;shape-rendering:auto;text-rendering:auto;enable-background:accumulate;stop-color:#000000;stop-opacity:1"
       d="m 54.191406,79.960938 c -1.843162,0 -3.404297,1.559181 -3.404297,3.402343 V 235.35742 c 0,1.84316 1.561135,3.41016 3.404297,3.41016 H 449.05469 c 1.84312,0 3.40429,-1.56702 3.40429,-3.41016 v -37.70508 h -4.91015 v 36.19922 H 55.697266 V 84.869141 H 447.54883 V 135.6582 h 4.91015 V 83.363281 c 0,-1.843139 -1.56117,-3.402344 -3.40429,-3.402343 z"
       transform="scale(0.26458333)" />
  </g>
</svg>
